<svg width="31" height="33" viewBox="0 0 31 33" fill="none" xmlns="http://www.w3.org/2000/svg">
<g clip-path="url(#clip0_1_145)">
<path d="M19.8796 18.1086C20.0545 18.1086 20.7104 18.4111 21.8473 19.0161C22.9843 19.6211 23.5864 19.9855 23.6536 20.1093C23.6806 20.178 23.694 20.2811 23.694 20.4186C23.694 20.8724 23.5796 21.3949 23.3509 21.9861C23.1356 22.5224 22.658 22.9727 21.918 23.3371C21.1779 23.7014 20.4918 23.8836 19.8594 23.8836C19.0924 23.8836 17.8142 23.4574 16.0247 22.6049C14.7062 21.9861 13.5625 21.1749 12.5938 20.1711C11.625 19.1674 10.6293 17.8955 9.60677 16.3555C8.63802 14.8843 8.16037 13.5505 8.17383 12.3543V12.1893C8.21419 10.938 8.71202 9.85176 9.66732 8.93051C9.99023 8.62801 10.3401 8.47676 10.7168 8.47676C10.7975 8.47676 10.9186 8.48707 11.0801 8.50769C11.2415 8.52832 11.3694 8.53863 11.4635 8.53863C11.7192 8.53863 11.8975 8.58332 11.9984 8.6727C12.0993 8.76207 12.2036 8.95113 12.3112 9.23988C12.4188 9.51488 12.6408 10.1199 12.9772 11.0549C13.3136 11.9899 13.4818 12.5055 13.4818 12.6018C13.4818 12.8905 13.2497 13.2858 12.7855 13.7877C12.3213 14.2896 12.0892 14.6093 12.0892 14.7468C12.0892 14.843 12.1228 14.9461 12.1901 15.0561C12.6476 16.0599 13.3338 17.0018 14.2487 17.8818C15.0022 18.6105 16.018 19.3049 17.2962 19.9649C17.4577 20.0611 17.6057 20.1093 17.7402 20.1093C17.9421 20.1093 18.3053 19.7758 18.8301 19.1089C19.3548 18.4421 19.7046 18.1086 19.8796 18.1086ZM15.7826 29.0399C17.4913 29.0399 19.1294 28.6961 20.6969 28.0086C22.2644 27.3211 23.6133 26.3999 24.7435 25.2449C25.8737 24.0899 26.7752 22.7114 27.4479 21.1096C28.1207 19.5077 28.457 17.8336 28.457 16.0874C28.457 14.3411 28.1207 12.6671 27.4479 11.0652C26.7752 9.46332 25.8737 8.08488 24.7435 6.92988C23.6133 5.77488 22.2644 4.85363 20.6969 4.16613C19.1294 3.47863 17.4913 3.13488 15.7826 3.13488C14.0738 3.13488 12.4357 3.47863 10.8682 4.16613C9.30067 4.85363 7.95182 5.77488 6.82161 6.92988C5.69141 8.08488 4.78993 9.46332 4.11719 11.0652C3.44444 12.6671 3.10807 14.3411 3.10807 16.0874C3.10807 18.8786 3.91536 21.4086 5.52995 23.6774L3.93555 28.483L8.81966 26.8949C10.9455 28.3249 13.2665 29.0399 15.7826 29.0399ZM15.7826 0.536133C17.8411 0.536133 19.8089 0.948633 21.6859 1.77363C23.5628 2.59863 25.1808 3.70551 26.5397 5.09426C27.8987 6.48301 28.9818 8.13645 29.7891 10.0546C30.5964 11.9727 31 13.9836 31 16.0874C31 18.1911 30.5964 20.2021 29.7891 22.1202C28.9818 24.0383 27.8987 25.6918 26.5397 27.0805C25.1808 28.4693 23.5628 29.5761 21.6859 30.4011C19.8089 31.2261 17.8411 31.6386 15.7826 31.6386C13.1589 31.6386 10.7033 30.9924 8.41602 29.6999L0 32.4636L2.74479 24.1105C1.29167 21.663 0.565104 18.9886 0.565104 16.0874C0.565104 13.9836 0.96875 11.9727 1.77604 10.0546C2.58333 8.13645 3.66645 6.48301 5.02539 5.09426C6.38433 3.70551 8.00228 2.59863 9.87923 1.77363C11.7562 0.948633 13.724 0.536133 15.7826 0.536133Z" fill="white"/>
</g>
<defs>
<clipPath id="clip0_1_145">
<rect width="31" height="33" fill="white"/>
</clipPath>
</defs>
</svg>
