<svg width="39" height="39" viewBox="0 0 39 39" fill="none" xmlns="http://www.w3.org/2000/svg">
<path d="M31.7728 4.8701C31.3815 4.89857 30.9975 4.99035 30.6357 5.14188H30.6308C30.2835 5.2796 28.6321 5.97429 26.1214 7.02729L17.1246 10.8164C10.6689 13.5342 4.32288 16.2106 4.32288 16.2106L4.39845 16.1813C4.39845 16.1813 3.96091 16.3251 3.50388 16.6384C3.22153 16.818 2.97857 17.0531 2.7897 17.3294C2.56545 17.6584 2.38507 18.1618 2.4521 18.6822C2.56179 19.5621 3.13216 20.0899 3.54166 20.3811C3.95604 20.6761 4.35091 20.8138 4.35091 20.8138H4.36066L10.3118 22.8186C10.5787 23.6754 12.1253 28.76 12.497 29.9313C12.7164 30.6308 12.9297 31.0684 13.1966 31.4023C13.3258 31.5729 13.4769 31.7155 13.6585 31.8301C13.7529 31.885 13.8536 31.9284 13.9583 31.9593L13.8974 31.9446C13.9157 31.9495 13.9303 31.9641 13.9437 31.969C13.9924 31.9824 14.0254 31.9873 14.0875 31.997C15.0296 32.2822 15.7864 31.6972 15.7864 31.6972L15.8291 31.6631L19.3428 28.4639L25.2318 32.9818L25.3658 33.0391C26.5931 33.5778 27.8362 33.2779 28.4931 32.749C29.1549 32.2164 29.4121 31.5351 29.4121 31.5351L29.4547 31.4254L34.0055 8.11198C34.1347 7.53673 34.1676 6.99804 34.025 6.4752C33.878 5.94604 33.5385 5.49094 33.0732 5.19916C32.6825 4.96165 32.2294 4.847 31.7728 4.8701ZM31.6497 7.36854C31.6448 7.44532 31.6594 7.43679 31.6253 7.58426V7.59766L27.1172 30.6686C27.0977 30.7015 27.0648 30.7734 26.9746 30.8453C26.8795 30.9209 26.8039 30.9684 26.4079 30.8112L19.205 25.289L14.8541 29.2549L15.7682 23.417L27.5364 12.4483C28.0215 11.9974 27.8594 11.9023 27.8594 11.9023C27.8935 11.349 27.1269 11.7402 27.1269 11.7402L12.2874 20.9332L12.2825 20.9089L5.16991 18.514V18.5091L5.15163 18.5055C5.1641 18.5013 5.17631 18.4965 5.1882 18.4909L5.2272 18.4714L5.26498 18.4579C5.26498 18.4579 11.6159 15.7816 18.0716 13.0638C21.3037 11.7024 24.5602 10.3313 27.0648 9.27345C28.5501 8.64823 30.037 8.02667 31.5254 7.40876C31.6253 7.36976 31.5778 7.36976 31.6497 7.36976V7.36854Z" fill="white"/>
</svg>
